<svg xmlns="http://www.w3.org/2000/svg" version="1.1" xmlns:xlink="http://www.w3.org/1999/xlink" width="512" height="512" x="0" y="0" viewBox="0 0 256 256" style="enable-background:new 0 0 512 512" xml:space="preserve"><circle r="128" cx="128" cy="128" fill="#BAC8D3" shape="circle"></circle><g transform="matrix(0.7,0,0,0.7,38.399704170227054,37.949966812133795)"><path fill="#F2AD97" d="M149.435 123.627a2.98 2.98 0 0 1-1.651-.497c-28.562-18.878-34.581-56.673-36.634-87.49a2.999 2.999 0 1 1 5.986-.398c1.961 29.436 7.593 65.459 33.956 82.883a3 3 0 0 1-1.657 5.502z" opacity="1" data-original="#f2ad97"></path><path fill="#E59076" d="M71.418 159.515a3 3 0 0 1-1.779-5.418c30.209-22.195 43.694-60.966 41.224-118.527a3 3 0 0 1 2.869-3.126c1.632-.088 3.055 1.213 3.125 2.868 1.231 28.696-1.589 53.448-8.384 73.568-7.191 21.295-19.062 38.135-35.282 50.053a2.988 2.988 0 0 1-1.773.582z" opacity="1" data-original="#e59076"></path><path fill="#EF7816" d="M39.907 197.373c-12.251 0-22.218-9.967-22.218-22.218 0-4.145 1.15-8.19 3.325-11.697a3.234 3.234 0 0 1 5.495 3.409 15.706 15.706 0 0 0-2.354 8.288c0 8.686 7.066 15.752 15.751 15.752s15.751-7.066 15.751-15.752a3.233 3.233 0 0 1 6.466 0c.002 12.251-9.965 22.218-22.216 22.218z" opacity="1" data-original="#ef7816"></path><path fill="#F79219" d="M58.333 148.07h19.721v24.67H58.333z" opacity="1" data-original="#f79219"></path><path fill="#F79219" d="m68.193 160.393-19.324.249c-13.971 11.994-18.259 30.338-.602 51.315h19.926z" opacity="1" data-original="#f79219"></path><path fill="#F79219" d="M35.181 195.967h13.747v9.735H28.024a1.289 1.289 0 0 1-1.289-1.289 8.447 8.447 0 0 1 8.446-8.446z" opacity="1" data-original="#f79219"></path><path fill="#FFA91A" d="M41.034 202.223h13.747v9.735H33.877a1.289 1.289 0 0 1-1.289-1.289 8.445 8.445 0 0 1 8.446-8.446z" opacity="1" data-original="#ffa91a"></path><path fill="#FFA91A" d="M58.526 146.119h-7.433c-15.784 21.766-7.409 49.462 3.688 65.838h10.19z" opacity="1" data-original="#ffa91a"></path><path fill="#F79219" d="m68.193 160.393 19.324.249c13.971 11.994 18.259 30.338.602 51.315H68.193z" opacity="1" data-original="#f79219"></path><path fill="#F79219" d="M101.205 195.967H87.458v9.735h20.904c.712 0 1.289-.577 1.289-1.289a8.446 8.446 0 0 0-8.446-8.446z" opacity="1" data-original="#f79219"></path><path fill="#FFA91A" d="M95.352 202.223H81.605v9.735h20.904c.712 0 1.289-.577 1.289-1.289a8.445 8.445 0 0 0-8.446-8.446z" opacity="1" data-original="#ffa91a"></path><path fill="#FFA91A" d="M77.86 146.119h7.433c15.784 21.766 7.409 49.462-3.688 65.838h-10.19z" opacity="1" data-original="#ffa91a"></path><path fill="#FFA91A" d="M95.352 202.223h-8.198c7.763-16.323 11.11-38.215-1.862-56.103H77.86l-6.445 65.838h31.094c.712 0 1.289-.577 1.289-1.289a8.445 8.445 0 0 0-8.446-8.446zM57.326 103.057c3.488 4.343 2.795 10.692-1.548 14.18s-10.692 2.795-14.18-1.548c-2.711-3.375-2.26-12.54-1.924-16.459a1.768 1.768 0 0 1 1.996-1.603c3.898.518 12.945 2.055 15.656 5.43z" opacity="1" data-original="#ffa91a"></path><path fill="#EF7816" d="M53.604 104.889a6.037 6.037 0 1 1-9.415 7.561c-1.623-2.02-1.353-7.506-1.152-9.852a1.06 1.06 0 0 1 1.195-.96c2.334.311 7.749 1.231 9.372 3.251z" opacity="1" data-original="#ef7816"></path><path fill="#FFA91A" d="M79.06 103.057c-3.488 4.343-2.795 10.692 1.548 14.18s10.692 2.795 14.18-1.548c2.711-3.375 2.26-12.54 1.924-16.459a1.768 1.768 0 0 0-1.996-1.603c-3.898.518-12.945 2.055-15.656 5.43z" opacity="1" data-original="#ffa91a"></path><path fill="#EF7816" d="M82.783 104.889a6.037 6.037 0 1 0 9.415 7.561c1.623-2.02 1.353-7.506 1.152-9.852a1.06 1.06 0 0 0-1.195-.96c-2.335.311-7.75 1.231-9.372 3.251z" opacity="1" data-original="#ef7816"></path><circle cx="68.221" cy="139.924" r="20.762" fill="#8C3F0A" opacity="1" data-original="#8c3f0a"></circle><circle cx="68.193" cy="127.753" r="26.214" fill="#FFA91A" transform="rotate(-72.24 68.208 127.791)" opacity="1" data-original="#ffa91a"></circle><path fill="#F1F2F2" d="M50.177 146.812a26.125 26.125 0 0 0 17.998 7.155c7.324 0 13.947-3.004 18.704-7.847 0-14.878-8.713-16.775-18.327-16.775-9.849 0-18.375 1.807-18.375 17.467z" opacity="1" data-original="#f1f2f2"></path><path fill="#FFA91A" d="M71.657 140.085a4.728 4.728 0 0 1-3.464-1.498 4.728 4.728 0 0 1-3.464 1.498 4.753 4.753 0 0 1-4.748-4.748.858.858 0 1 1 1.716 0 3.036 3.036 0 0 0 3.033 3.033 3.023 3.023 0 0 0 2.701-1.652.859.859 0 0 1 1.526 0 3.023 3.023 0 0 0 2.701 1.652 3.037 3.037 0 0 0 3.033-3.033.858.858 0 1 1 1.716 0 4.756 4.756 0 0 1-4.75 4.748z" opacity="1" data-original="#ffa91a"></path><path fill="#FFA91A" d="M68.193 137.967a.858.858 0 0 1-.858-.858v-4.127a.858.858 0 1 1 1.716 0v4.127a.858.858 0 0 1-.858.858z" opacity="1" data-original="#ffa91a"></path><path fill="#58595B" d="M72.684 128.769a4.464 4.464 0 1 1-8.928 0c0-2.465 1.998-1.585 4.464-1.585s4.464-.88 4.464 1.585z" opacity="1" data-original="#58595b"></path><path fill="#F79219" d="M99.285 138.156a.571.571 0 0 1-.364-.131c-5.522-4.56-13.611-4.668-19.233-.259a.572.572 0 0 1-.706-.9c6.042-4.74 14.734-4.623 20.667.277a.572.572 0 0 1-.364 1.013z" opacity="1" data-original="#f79219"></path><path fill="#F79219" d="M98.9 145.499a.571.571 0 0 1-.468-.242c-4.129-5.851-11.905-8.083-18.488-5.306a.572.572 0 1 1-.444-1.054c7.075-2.984 15.431-.587 19.868 5.7a.572.572 0 0 1-.468.902z" opacity="1" data-original="#f79219"></path><path fill="#F79219" d="M96.578 153.372a.571.571 0 0 1-.546-.404c-2.106-6.845-8.804-11.383-15.924-10.789a.572.572 0 0 1-.095-1.139c7.651-.638 14.849 4.238 17.112 11.593a.57.57 0 0 1-.547.739zM37.102 138.156a.571.571 0 0 1-.364-1.013c5.933-4.9 14.625-5.017 20.667-.277a.572.572 0 0 1-.706.9c-5.623-4.41-13.711-4.301-19.233.259a.571.571 0 0 1-.364.131z" opacity="1" data-original="#f79219"></path><path fill="#F79219" d="M37.487 145.499a.572.572 0 0 1-.467-.902c4.437-6.287 12.792-8.685 19.867-5.7a.573.573 0 0 1-.444 1.054c-6.583-2.777-14.36-.545-18.488 5.306a.573.573 0 0 1-.468.242z" opacity="1" data-original="#f79219"></path><path fill="#F79219" d="M39.808 153.372a.571.571 0 0 1-.546-.74c2.263-7.354 9.459-12.229 17.112-11.593a.57.57 0 1 1-.095 1.139c-7.122-.596-13.818 3.945-15.924 10.789a.574.574 0 0 1-.547.405zM68.193 101.539c-.666 0-1.326.025-1.979.074v17.008a2.007 2.007 0 1 0 4.014 0v-17.004a26.362 26.362 0 0 0-2.035-.078zM73.183 102.013v10.889a2.007 2.007 0 1 0 4.014 0v-9.776a26.072 26.072 0 0 0-4.014-1.113zM59.19 103.126v9.776a2.007 2.007 0 1 0 4.014 0v-10.889c-1.38.266-2.72.64-4.014 1.113z" opacity="1" data-original="#f79219"></path><circle cx="57.287" cy="121.41" r="3.02" fill="#58595B" opacity="1" data-original="#58595b"></circle><circle cx="79.099" cy="121.41" r="3.02" fill="#58595B" opacity="1" data-original="#58595b"></circle><path fill="#EF7816" d="M208.548 190.292c-16.411 0-29.763-13.351-29.763-29.762a3.233 3.233 0 0 1 6.466 0c0 12.845 10.451 23.295 23.296 23.295s23.296-10.45 23.296-23.295c0-4.348-1.204-8.587-3.483-12.26a3.234 3.234 0 0 1 5.495-3.409 29.691 29.691 0 0 1 4.454 15.669c.002 16.41-13.35 29.762-29.761 29.762z" opacity="1" data-original="#ef7816"></path><path fill="#F79219" d="M182.8 157.153h-27.559v-34.474H182.8z" opacity="1" data-original="#f79219"></path><path fill="#F79219" d="m169.02 139.9 27.003.348c19.523 16.761 25.516 42.395.842 71.709H169.02z" opacity="1" data-original="#f79219"></path><path fill="#F79219" d="M215.152 189.612h-19.21v13.604h29.212a1.8 1.8 0 0 0 1.801-1.801c0-6.519-5.284-11.803-11.803-11.803z" opacity="1" data-original="#f79219"></path><path fill="#FFA91A" d="M206.973 198.354h-19.21v13.604h29.212a1.8 1.8 0 0 0 1.801-1.801c0-6.519-5.284-11.803-11.803-11.803z" opacity="1" data-original="#ffa91a"></path><path fill="#FFA91A" d="M182.529 119.954h10.386c22.057 30.417 10.353 69.119-5.153 92.004h-14.239z" opacity="1" data-original="#ffa91a"></path><path fill="#F79219" d="m169.02 139.9-27.003.348c-19.523 16.761-25.516 42.395-.842 71.709h27.845z" opacity="1" data-original="#f79219"></path><path fill="#F79219" d="M122.889 189.612h19.21v13.604h-29.212a1.8 1.8 0 0 1-1.801-1.801c0-6.519 5.284-11.803 11.803-11.803z" opacity="1" data-original="#f79219"></path><path fill="#FFA91A" d="M131.068 198.354h19.21v13.604h-29.212a1.8 1.8 0 0 1-1.801-1.801c0-6.519 5.284-11.803 11.803-11.803z" opacity="1" data-original="#ffa91a"></path><path fill="#FFA91A" d="M155.511 119.954h-10.386c-22.057 30.417-10.353 69.119 5.153 92.004h14.239z" opacity="1" data-original="#ffa91a"></path><path fill="#FFA91A" d="M131.068 198.354h11.455c-10.849-22.811-15.525-53.402 2.602-78.4h10.386l9.006 92.004h-43.451a1.801 1.801 0 0 1-1.801-1.801c0-6.519 5.284-11.803 11.803-11.803z" opacity="1" data-original="#ffa91a"></path><path fill="#EF7816" d="M141.683 56.685c-5.23 2.586-9.356 7.323-11.2 12.859-2.073 6.225-1.311 13.111-3.306 19.361-1.077 3.376-2.93 6.466-3.978 9.851-.596 1.924-.856 4.223.431 5.773 1.46 1.758 4.136 1.699 6.402 1.402 5.002-.655 10.363-1.963 13.532-5.889 2.803-3.471 3.273-8.263 3.076-12.72s-.939-8.962-.108-13.346c1.025-5.41 4.546-10.294 9.354-12.976 1.036-.578 2.155-1.08 2.939-1.97 3.28-3.725-3.412-4.394-5.633-4.558-3.941-.289-7.964.461-11.509 2.213zM198.755 56.685c5.23 2.586 9.356 7.323 11.2 12.859 2.073 6.225 1.311 13.111 3.306 19.361 1.077 3.376 2.93 6.466 3.978 9.851.596 1.924.856 4.223-.431 5.773-1.46 1.758-4.136 1.699-6.402 1.402-5.002-.655-10.363-1.963-13.532-5.889-2.803-3.471-3.273-8.263-3.076-12.72s.939-8.962.108-13.346c-1.025-5.41-4.546-10.294-9.354-12.976-1.036-.578-2.155-1.08-2.939-1.97-3.28-3.725 3.412-4.394 5.633-4.558 3.941-.289 7.964.461 11.509 2.213z" opacity="1" data-original="#ef7816"></path><circle cx="170.219" cy="118.837" r="26.823" fill="#8C3F0A" opacity="1" data-original="#8c3f0a"></circle><path fill="#FFA91A" d="M177.63 125.225h-14.823c-12.017 0-21.758-9.742-21.758-21.758V76.888c0-12.017 9.742-21.758 21.758-21.758h14.823c12.017 0 21.758 9.742 21.758 21.758v26.579c.001 12.017-9.741 21.758-21.758 21.758z" opacity="1" data-original="#ffa91a"></path><path fill="#F79219" d="M177.63 55.13h-.297a38.315 38.315 0 0 0-.816 7.888c0 15.643 9.407 29.089 22.872 34.99v-21.12c0-12.017-9.742-21.758-21.759-21.758zM141.049 76.888v21.119c13.465-5.901 22.872-19.347 22.872-34.99 0-2.704-.282-5.343-.816-7.888h-.297c-12.017.001-21.759 9.742-21.759 21.759z" opacity="1" data-original="#f79219"></path><path fill="#F1F2F2" d="M183.724 100.281c-2.986-.778-5.244-2.829-5.967-5.365l-1.972-6.914c-3.073-10.774-3.517-21.952-1.306-32.872h-8.519c2.211 10.92 1.767 22.098-1.306 32.872l-1.972 6.914c-.723 2.536-2.981 4.587-5.967 5.365-6.591 1.717-12.177 5.254-12.177 12.265v.53c0 11.82 11.498 21.403 25.681 21.403 14.183 0 25.681-9.582 25.681-21.403v-.53c.001-7.011-5.585-10.548-12.176-12.265z" opacity="1" data-original="#f1f2f2"></path><circle cx="155.005" cy="83.821" r="4.214" fill="#58595B" transform="rotate(-38.3 154.967 83.797)" opacity="1" data-original="#58595b"></circle><path fill="#414042" d="M156.002 79.726a4.214 4.214 0 0 1-5.091 5.091 4.215 4.215 0 0 0 8.309-.996 4.217 4.217 0 0 0-3.218-4.095z" opacity="1" data-original="#414042"></path><circle cx="185.433" cy="83.821" r="4.214" fill="#58595B" transform="rotate(-38.3 185.386 83.797)" opacity="1" data-original="#58595b"></circle><path fill="#414042" d="M186.429 79.726a4.214 4.214 0 0 1-5.091 5.091 4.215 4.215 0 0 0 8.309-.996 4.217 4.217 0 0 0-3.218-4.095z" opacity="1" data-original="#414042"></path><circle cx="170.219" cy="119.162" r="9.839" fill="#58595B" opacity="1" data-original="#58595b"></circle><path fill="#414042" d="M176.132 111.297a9.796 9.796 0 0 1 1.974 5.912c0 5.434-4.405 9.839-9.839 9.839a9.8 9.8 0 0 1-5.913-1.974 9.824 9.824 0 0 0 7.865 3.927c5.434 0 9.839-4.405 9.839-9.839a9.824 9.824 0 0 0-3.926-7.865z" opacity="1" data-original="#414042"></path><path fill="#E63950" d="M170.219 131.687a4.596 4.596 0 0 1-4.596-4.596v-9.617h9.193v9.617a4.597 4.597 0 0 1-4.597 4.596z" opacity="1" data-original="#e63950"></path><path fill="#D10028" d="M169.544 131.638a4.694 4.694 0 0 0 1.35 0v-14.164h-1.351v14.164z" opacity="1" data-original="#d10028"></path><path fill="#FFFFFF" d="M177.984 105.355h-15.53a8.721 8.721 0 1 0 7.765 12.695 8.722 8.722 0 1 0 7.765-12.695z" opacity="1" data-original="#ffffff"></path><path fill="#58595B" d="M177.862 106.189a7.643 7.643 0 0 1-15.286 0c0-4.221 15.286-4.221 15.286 0z" opacity="1" data-original="#58595b"></path><path fill="#414042" d="M174.533 103.523a7.643 7.643 0 0 1-11.113 6.162 7.643 7.643 0 0 0 14.442-3.496c0-1.272-1.388-2.161-3.329-2.666z" opacity="1" data-original="#414042"></path><path fill="#E6E7E8" d="M160.551 111.557a.868.868 0 1 1-1.736 0 .868.868 0 0 1 1.736 0zM158.359 114.292a.868.868 0 1 1-1.736 0 .868.868 0 0 1 1.736 0zM162.563 114.292a.868.868 0 1 1-1.736 0 .868.868 0 0 1 1.736 0zM160.94 117.325a.868.868 0 1 1-1.736 0 .868.868 0 0 1 1.736 0zM165.144 117.325a.868.868 0 1 1-1.736 0 .868.868 0 0 1 1.736 0zM179.887 111.557a.868.868 0 1 0 1.736 0 .868.868 0 0 0-1.736 0zM182.079 114.292a.868.868 0 1 0 1.736 0 .868.868 0 0 0-1.736 0zM177.875 114.292a.868.868 0 1 0 1.736 0 .868.868 0 0 0-1.736 0zM179.498 117.325a.868.868 0 1 0 1.736 0 .868.868 0 0 0-1.736 0zM175.294 117.325a.868.868 0 1 0 1.736 0 .868.868 0 0 0-1.736 0z" opacity="1" data-original="#e6e7e8"></path><path fill="#FCC4AE" d="M152.571 177.081a9.602 9.602 0 0 0 1.082-4.445c0-5.33-4.321-9.651-9.651-9.651-.961 0-1.89.141-2.766.403-.913-6.719-6.673-11.897-13.642-11.897-6.9 0-12.615 5.076-13.614 11.698a9.674 9.674 0 0 0-1.983-.204c-5.33 0-9.651 4.321-9.651 9.651 0 1.603.391 3.115 1.082 4.445-5.066.294-9.084 4.495-9.084 9.634 0 5.33 4.321 9.651 9.651 9.651a9.64 9.64 0 0 0 8.001-4.253 9.64 9.64 0 0 0 8.001 4.253 9.64 9.64 0 0 0 8.001-4.253 9.64 9.64 0 0 0 8.001 4.253 9.64 9.64 0 0 0 8.001-4.253 9.642 9.642 0 0 0 8.001 4.253c5.33 0 9.651-4.321 9.651-9.651.003-5.139-4.015-9.34-9.081-9.634z" opacity="1" data-original="#fcc4ae"></path><path fill="#E59076" d="M123.835 180.713a1.249 1.249 0 0 1-1.218-1.03c-.483-2.517-2.701-4.424-5.356-4.424s-4.873 1.907-5.356 4.424a1.249 1.249 0 0 1-1.218 1.03 1.244 1.244 0 0 1-1.214-1.487c.698-3.664 3.925-6.442 7.789-6.442s7.091 2.778 7.789 6.442a1.246 1.246 0 0 1-1.216 1.487zM145.314 180.713a1.249 1.249 0 0 1-1.218-1.03c-.483-2.517-2.701-4.424-5.356-4.424s-4.873 1.907-5.356 4.424a1.249 1.249 0 0 1-1.218 1.03 1.244 1.244 0 0 1-1.214-1.487c.698-3.664 3.925-6.442 7.789-6.442s7.091 2.778 7.789 6.442a1.246 1.246 0 0 1-1.216 1.487zM134.574 169.84a1.249 1.249 0 0 1-1.218-1.03c-.483-2.517-2.701-4.424-5.356-4.424s-4.874 1.907-5.356 4.424a1.249 1.249 0 0 1-1.218 1.03 1.244 1.244 0 0 1-1.214-1.487c.698-3.664 3.925-6.442 7.789-6.442s7.091 2.778 7.789 6.442a1.246 1.246 0 0 1-1.216 1.487z" opacity="1" data-original="#e59076"></path><path fill="#E63950" d="M168.915 220.56h-81.83c-4.808 0-8.098-4.854-6.317-9.32l9.202-23.072a6.802 6.802 0 0 1 6.317-4.282h63.426a6.8 6.8 0 0 1 6.317 4.282l9.202 23.072c1.781 4.466-1.509 9.32-6.317 9.32z" opacity="1" data-original="#e63950"></path><path fill="#E8566F" d="M88.88 209.09c-.25 0-.5-.05-.74-.14a2.006 2.006 0 0 1-1.11-2.601c.39-1 1.59-1.52 2.59-1.12 1.03.41 1.53 1.58 1.12 2.601-.3.77-1.03 1.26-1.86 1.26zm2.97-7.43a2.005 2.005 0 0 1-1.86-2.741l3.7-9.271a2.792 2.792 0 0 1 2.58-1.76h59.76a2 2 0 0 1 0 4H97.1l-3.4 8.51a1.985 1.985 0 0 1-1.85 1.262z" opacity="1" data-original="#e8566f"></path><path fill="#D10028" d="m175.232 211.239-9.202-23.073a6.801 6.801 0 0 0-6.317-4.281h-1.402l6.921 17.354c1.781 4.466-1.509 9.32-6.317 9.32H81.039l-.271.68c-1.781 4.466 1.509 9.32 6.317 9.32h81.829c4.809.001 8.099-4.853 6.318-9.32z" opacity="1" data-original="#d10028"></path><path fill="#B7022D" d="m175.232 211.239-9.202-23.073a6.788 6.788 0 0 0-4.621-4.05l8.823 22.122c1.781 4.466-1.509 9.32-6.317 9.32h-81.83a6.857 6.857 0 0 1-1.613-.196c.71 2.893 3.301 5.196 6.613 5.196h81.829c4.809.002 8.099-4.852 6.318-9.319z" opacity="1" data-original="#b7022d"></path><path fill="#FFFFFF" d="m131.345 214.712-2.171-.564a4.67 4.67 0 0 0-2.348 0l-2.171.564c-3.135.815-6.154-1.729-6.154-5.185 0-4.417 4.253-10.177 9.499-10.177s9.499 5.761 9.499 10.177c0 3.455-3.02 5.999-6.154 5.185zM119.504 197.382c1.11 1.968 1.208 3.871-.177 4.758-1.386.888-3.767.302-4.877-1.666s-.527-4.574.858-5.461c1.386-.888 3.086.401 4.196 2.369zM126.698 193.412c.514 2.2.076 4.054-1.503 4.518s-3.701-.765-4.215-2.966c-.514-2.2.774-4.538 2.353-5.002 1.58-.464 2.851 1.249 3.365 3.45zM136.496 197.382c-1.11 1.968-1.208 3.871.177 4.758 1.386.888 3.767.302 4.877-1.666s.527-4.574-.858-5.461c-1.386-.888-3.086.401-4.196 2.369zM129.302 193.412c-.514 2.2-.076 4.054 1.503 4.518s3.701-.765 4.215-2.966c.514-2.2-.774-4.538-2.353-5.002-1.58-.464-2.851 1.249-3.365 3.45z" opacity="1" data-original="#ffffff"></path></g></svg>