<svg xmlns="http://www.w3.org/2000/svg" version="1.1" xmlns:xlink="http://www.w3.org/1999/xlink" width="512" height="512" x="0" y="0" viewBox="0 0 512 512" style="enable-background:new 0 0 512 512" xml:space="preserve" class=""><g><path fill="#60B7FF" d="M256 22C120.69 22 11 131.69 11 267c0 23.812 3.408 46.825 9.745 68.591l43.652 84.062h381.296l2.736-1C481.349 376.937 501 324.265 501 267c0-135.31-109.69-245-245-245z" opacity="1" data-original="#60b7ff"></path><path fill="#5A5A8A" d="M306.242 0h19.516C371.179 0 408 36.821 408 82.242V208c0 5.523-4.477 10-10 10H234c-5.523 0-10-4.477-10-10V82.242C224 36.821 260.821 0 306.242 0z" opacity="1" data-original="#5a5a8a"></path><g fill="#444474"><path d="M255 208v-3.616a64.707 64.707 0 0 1-14.493-33.308H235c-.468 0-.931-.02-1.391-.052v46.957c.131.005.259.02.391.02h31c-5.523-.001-10-4.478-10-10.001zM235 113.199h4.976a2.994 2.994 0 0 1 1.905-2.671L255 105.435V82.242c0-43.489 33.761-79.069 76.5-82.02A83.295 83.295 0 0 0 325.758 0h-19.516C260.821 0 224 36.821 224 82.242v34.262a19.897 19.897 0 0 1 11-3.305z" fill="#444474" opacity="1" data-original="#444474" class=""></path></g><path fill="#FFFFFF" d="M443 419.652V271.686c0-19.33-15.67-35-35-35H224c-19.33 0-35 15.67-35 35v147.966z" opacity="1" data-original="#ffffff" class=""></path><path fill="#EAF6FF" d="M364.604 214.582c-10.56 7.685-23.541 12.235-37.571 12.235h-22.066c-14.03 0-27.012-4.55-37.571-12.235l-23.077 52.843a3.817 3.817 0 0 0 1.438 4.74l17.256 11.057c2.343 1.501 2.343 4.924 0 6.425l-17.256 11.057a3.815 3.815 0 0 0-1.438 4.74l24.314 55.677h94.734l20.411-46.739v-15.258l-14.791-9.477c-2.343-1.501-2.343-4.924 0-6.425l17.256-11.057a3.815 3.815 0 0 0 1.438-4.74z" opacity="1" data-original="#eaf6ff"></path><path fill="#0182FC" d="M292.302 361.121h47.395l15.562-118.785a5 5 0 0 0-4.958-5.649h-68.604a5 5 0 0 0-4.958 5.649z" opacity="1" data-original="#0182fc"></path><path fill="#0172FB" d="M292.171 360.121h21l-9.712-74.131-17.679-34.287a24.997 24.997 0 0 1-2.78-11.457v-3.559h-1.302a5 5 0 0 0-4.958 5.649z" opacity="1" data-original="#0172fb"></path><path fill="#FED2A4" d="M240.966 162.818V113.2H235c-11.046 0-20 8.954-20 20v17.876c0 11.046 8.954 20 20 20h6.517a64.307 64.307 0 0 1-.551-8.258z" opacity="1" data-original="#fed2a4"></path><path fill="#FFBD86" d="M397 113.199h-5.966v49.618c0 2.8-.2 5.552-.551 8.258H397c11.046 0 20-8.954 20-20v-17.876c0-11.045-8.954-20-20-20zM327.034 226.818h-22.068A63.71 63.71 0 0 1 283 222.934v17.313c0 3.986.953 7.914 2.78 11.457l25.776 49.99c1.862 3.611 7.026 3.611 8.888 0l25.776-49.99a24.997 24.997 0 0 0 2.78-11.457v-17.312a63.733 63.733 0 0 1-21.966 3.883z" opacity="1" data-original="#ffbd86" class=""></path><path fill="#F6A96C" d="M309 240.246v-12.429h-4.034A64.87 64.87 0 0 1 283 224.002v16.243c0 3.986.953 7.914 2.78 11.457l25.776 49.99c1.862 3.611 7.026 3.611 8.888 0L329 285.1l-17.22-33.397a24.997 24.997 0 0 1-2.78-11.457z" opacity="1" data-original="#f6a96c" class=""></path><path fill="#FED2A4" d="M367.034 78.312h-2.093c-.481 0-.955.116-1.382.337l-62.177 32.276c-1.997 1.037-4.382-.413-4.382-2.663v-14.75c0-2.109-2.119-3.56-4.086-2.797l-51.034 19.813a3 3 0 0 0-1.914 2.797v49.493c0 35.899 29.102 65 65 65h22.067c35.898 0 65-29.101 65-65v-59.506c.001-13.807-11.192-25-24.999-25z" opacity="1" data-original="#fed2a4"></path><path fill="#FFBD86" d="M262.449 163.243v-60.701l-20.569 7.985a3 3 0 0 0-1.914 2.797v49.493c0 35.899 29.102 65 65 65h4.511c-27.282-8.787-47.028-34.369-47.028-64.574z" opacity="1" data-original="#ffbd86" class=""></path><path fill="#A44F3E" d="M322 177.5h-9c-5.79 0-10.5-4.71-10.5-10.5v-24.688c0-4.143 3.357-7.5 7.5-7.5s7.5 3.357 7.5 7.5V162.5h4.5c4.143 0 7.5 3.357 7.5 7.5s-3.357 7.5-7.5 7.5zM316 205.78c-11.88 0-23.76-4.521-32.804-13.565a7.5 7.5 0 0 1 10.607-10.607c12.238 12.24 32.154 12.24 44.393 0a7.5 7.5 0 0 1 10.607 10.607C339.76 201.259 327.88 205.78 316 205.78z" opacity="1" data-original="#a44f3e" class=""></path><circle cx="273.57" cy="129.5" r="12.5" fill="#A44F3E" opacity="1" data-original="#a44f3e" class=""></circle><circle cx="358.43" cy="129.5" r="12.5" fill="#A44F3E" opacity="1" data-original="#a44f3e" class=""></circle><path fill="#D88A55" d="M174 399.182v-1.07c0-4.298 3.496-7.794 7.794-7.794v-2c-4.298 0-7.794-3.496-7.794-7.794v-1.071c0-4.298 3.496-7.794 7.794-7.794v-2c-4.298 0-7.794-3.496-7.794-7.793v-1.071c0-4.298 3.496-7.794 7.794-7.794H192v-29.313l-27.242 27.242a5.96 5.96 0 0 0-1.758 4.242v45.353h11.124a7.836 7.836 0 0 1-.124-1.343z" opacity="1" data-original="#d88a55" class=""></path><path fill="#EA9B58" d="M203.912 285.653h-52.863c-10.889 0-20.174-6.981-23.627-16.7-8.923-4.857-15.066-14.188-15.417-24.958l-88.136 88.137a50.706 50.706 0 0 0-3.128 3.442c9.025 31.013 24.026 59.473 43.656 84.079h33.051l28.431-28.431c1.89-1.89 5.121-.551 5.121 2.121v26.31h43.143L174 416.77c0-4.298 3.496-7.794 7.794-7.794v-2c-4.183 0-7.596-3.314-7.777-7.452H164v-44.352c0-1.326.527-2.598 1.464-3.536l30.074-30.074c9.722-9.722 12.699-23.63 8.944-35.922-.19.003-.379.013-.57.013z" opacity="1" data-original="#ea9b58" class=""></path><path fill="#D88A55" d="M93.859 419.652A41.652 41.652 0 0 0 95 410c0-23.1-18.9-42-42-42H32.724a244.972 244.972 0 0 0 31.643 51.652z" opacity="1" data-original="#d88a55" class=""></path><path fill="#FFFFFF" d="M218.722 119.56a5.023 5.023 0 0 0-5.783 0c-8.815 6.203-14.886 23.994-14.886 34.553v4.121h7.687c14.815 0 26.869 12.054 26.869 26.869v5.273h1v-36.263c0-10.559-6.071-28.35-14.887-34.553z" opacity="1" data-original="#ffffff" class=""></path><path fill="#EAF6FF" d="M205.739 157.233c.78 0 1.55.04 2.314.103v-3.224c0-6.27 2.701-14.869 6.055-20.717.417-.727 1.187-1.039 1.924-.966 1.986-3.581 4.323-6.687 6.921-8.8-1.321-1.627-2.735-3.018-4.229-4.07a5.023 5.023 0 0 0-5.783 0c-8.815 6.203-14.886 23.994-14.886 34.553v3.121z" opacity="1" data-original="#eaf6ff"></path><path fill="#FFBD86" d="M223.608 165.059v-10.947c0-6.27-2.702-14.869-6.054-20.716-.758-1.321-2.689-1.321-3.447 0-3.354 5.848-6.055 14.446-6.055 20.717v4.227a26.756 26.756 0 0 1 15.556 6.719z" opacity="1" data-original="#ffbd86" class=""></path><path fill="#FFFFFF" d="M122.353 185.103c0-14.815 12.054-26.869 26.87-26.869h7.687v-4.121c0-10.558-6.071-28.349-14.886-34.553a5.024 5.024 0 0 0-5.784 0c-8.815 6.203-14.886 23.994-14.886 34.553v36.263h1v-5.273z" opacity="1" data-original="#ffffff" class=""></path><path fill="#EAF6FF" d="M131.353 163.721v-9.608c0-6.27 2.701-14.868 6.055-20.716.497-.868 1.498-1.154 2.343-.882 1.665-3.617 3.661-6.957 5.927-9.572-1.154-1.331-2.374-2.482-3.654-3.383a5.024 5.024 0 0 0-5.784 0c-8.815 6.203-14.886 23.994-14.886 34.553v30.991c-.001-8.591 3.888-16.271 9.999-21.383z" opacity="1" data-original="#eaf6ff"></path><path fill="#FED2A4" d="M146.909 158.34v-4.227c0-6.27-2.701-14.868-6.055-20.716-.758-1.321-2.689-1.321-3.447 0-3.354 5.848-6.055 14.447-6.055 20.716v10.947a26.76 26.76 0 0 1 15.557-6.72z" opacity="1" data-original="#fed2a4"></path><path fill="#FED2A4" d="M141.48 213.523h72c7.775 0 14.853 3.029 20.128 7.962v-36.382c0-15.392-12.478-27.87-27.87-27.87h-56.516c-15.392 0-27.87 12.478-27.87 27.87v36.382c5.276-4.933 12.353-7.962 20.128-7.962z" opacity="1" data-original="#fed2a4"></path><path fill="#FFBD86" d="M141.481 212.523H142v-27.42c0-15.392 12.478-27.87 27.87-27.87h-20.647c-15.392 0-27.87 12.478-27.87 27.87v35.015c5.371-4.724 12.412-7.595 20.128-7.595z" opacity="1" data-original="#ffbd86" class=""></path><path fill="#D88A55" d="M213.48 272.523a37.983 37.983 0 0 1-23.82-8.431 19.414 19.414 0 0 0-12.18-4.311 19.413 19.413 0 0 0-12.18 4.311 37.987 37.987 0 0 1-23.82 8.431 29.32 29.32 0 0 1-15.369-4.33c3.256 10.685 13.187 18.46 24.937 18.46h52.863c11.75 0 21.682-7.775 24.938-18.461a29.307 29.307 0 0 1-15.369 4.331z" opacity="1" data-original="#d88a55" class=""></path><path fill="#C57A44" d="M156.89 270.329a38.866 38.866 0 0 1-15.409 3.194 30.35 30.35 0 0 1-14.88-3.878c3.681 9.93 13.237 17.008 24.448 17.008h30.019c-10.951.001-20.318-6.755-24.178-16.324z" opacity="1" data-original="#c57a44" class=""></path><circle cx="204.981" cy="194.023" r="7.5" fill="#A44F3E" opacity="1" data-original="#a44f3e" class=""></circle><circle cx="149.981" cy="194.023" r="7.5" fill="#A44F3E" opacity="1" data-original="#a44f3e" class=""></circle><path fill="#EA9B58" d="M141.481 212.523h72c16.845 0 30.5 13.655 30.5 30.5s-13.655 30.5-30.5 30.5c-8.9 0-17.531-3.055-24.449-8.653a18.362 18.362 0 0 0-23.102 0 38.87 38.87 0 0 1-24.449 8.653c-16.845 0-30.5-13.655-30.5-30.5s13.655-30.5 30.5-30.5z" opacity="1" data-original="#ea9b58" class=""></path><path fill="#D88A55" d="M131 243.023c0-16.845 13.655-30.5 30.5-30.5h-20.019c-16.845 0-30.5 13.655-30.5 30.5s13.655 30.5 30.5 30.5c3.615 0 7.182-.512 10.611-1.486C139.853 268.071 131 256.584 131 243.023z" opacity="1" data-original="#d88a55" class=""></path><path fill="#A44F3E" d="M169.981 229.523h15c6.627 0 12-5.373 12-12s-5.373-12-12-12h-15c-6.627 0-12 5.373-12 12 0 6.628 5.372 12 12 12z" opacity="1" data-original="#a44f3e" class=""></path><path fill="#883F2E" d="M173 217.523c0-6.624 5.367-11.994 11.99-12h-15.01c-6.627 0-12 5.373-12 12s5.373 12 12 12h15.01c-6.623-.006-11.99-5.376-11.99-12z" opacity="1" data-original="#883f2e" class=""></path><path fill="#FED2A4" d="m89.35 246.576 19.384 19.384a8.794 8.794 0 0 1 0 12.436l-.757.757a8.794 8.794 0 0 1-12.436 0 8.794 8.794 0 0 1 0 12.436l-.757.757a8.794 8.794 0 0 1-12.436 0 8.794 8.794 0 0 1 0 12.436l-.757.757a8.794 8.794 0 0 1-12.436 0 8.794 8.794 0 0 1 0 12.436l-.757.757a8.794 8.794 0 0 1-12.436 0L36.576 299.35a8.794 8.794 0 0 1 0-12.436l40.338-40.338a8.792 8.792 0 0 1 12.436 0z" opacity="1" data-original="#fed2a4"></path><path fill="#FFBD86" d="m50.718 301.056 40.338-40.338a8.794 8.794 0 0 1 12.436 0L89.35 246.576a8.794 8.794 0 0 0-12.436 0l-40.338 40.338a8.794 8.794 0 0 0 0 12.436l14.142 14.142a8.794 8.794 0 0 1 0-12.436z" opacity="1" data-original="#ffbd86" class=""></path><path fill="#EAF6FF" d="M412.889 255.275c-16.63 0-30.111 13.481-30.111 30.111v69.735a5 5 0 0 1-5 5H216.966c.019.222.034.446.034.673l-.029 58.858H443V285.386c0-16.63-13.481-30.111-30.111-30.111z" opacity="1" data-original="#eaf6ff"></path><path fill="#D8ECFE" d="M412.889 255.275c-16.63 0-30.111 13.481-30.111 30.111v69.735a5 5 0 0 1-5 5H217.966c.017.223.034.445.034.672v15.364h170.089c5.523 0 10-4.477 10-10V291c0-16.63 13.481-30 30.111-30 .842 0 1.674.043 2.498.11a29.973 29.973 0 0 0-17.809-5.835z" opacity="1" data-original="#d8ecfe" class=""></path><path fill="#FED2A4" d="M217.811 419.652a8.799 8.799 0 0 0 .189-1.812v-57.047a8.794 8.794 0 0 0-8.794-8.794h-27.413a8.794 8.794 0 0 0-8.794 8.794v1.071a8.794 8.794 0 0 0 8.794 8.794 8.794 8.794 0 0 0-8.794 8.794v1.071a8.794 8.794 0 0 0 8.794 8.794 8.794 8.794 0 0 0-8.794 8.794v1.071a8.794 8.794 0 0 0 8.794 8.794 8.794 8.794 0 0 0-8.794 8.794v1.071c0 .621.066 1.227.189 1.812h44.623z" opacity="1" data-original="#fed2a4"></path><path fill="#FFBD86" d="M193.041 418.652a8.724 8.724 0 0 1-.041-.812v-57.047a8.794 8.794 0 0 1 8.794-8.794h-20a8.794 8.794 0 0 0-8.794 8.794v1.071a8.794 8.794 0 0 0 8.794 8.794 8.794 8.794 0 0 0-8.794 8.794v1.071a8.794 8.794 0 0 0 8.794 8.794 8.794 8.794 0 0 0-8.794 8.794v1.071a8.794 8.794 0 0 0 8.794 8.794A8.794 8.794 0 0 0 173 416.77v1.071c0 .274.016.544.041.812h20z" opacity="1" data-original="#ffbd86" class=""></path><path fill="#CECEFE" d="M256 512c78.045 0 147.563-36.496 192.429-93.348H63.571C108.438 475.504 177.955 512 256 512z" opacity="1" data-original="#cecefe"></path></g></svg>