<svg xmlns="http://www.w3.org/2000/svg" version="1.1" xmlns:xlink="http://www.w3.org/1999/xlink" width="512" height="512" x="0" y="0" viewBox="0 0 512.094 512.094" style="enable-background:new 0 0 512 512" xml:space="preserve"><g><path fill="#7FE8EF" d="M512.047 256.094c0 61.18-21.47 117.36-57.29 161.39-4.19 5.15-15.627-2.558-20.197 2.252-4.91 5.17-2.993 22.828-8.323 27.568-3.77 3.37-7.64 6.61-11.6 9.74-1.58 1.27-35.58-13.107-37.19-11.887-42.82 32.23-63.68 48.265-121.4 48.265-6.75 0-13.45 1.709-20.07 1.189-3.59-.27-7.16 4.65-10.71 4.23-.85-.1-1.7-.21-2.55-.32-26.79-3.48-27.521-17.89-51.041-29-9.54-4.49-43.498 8.633-52.338 3.043C47.648 427.194.048 347.204.048 256.094c0-141.38 114.62-256 256-256s255.999 114.62 255.999 256z" opacity="1" data-original="#7fe8ef"></path><path fill="#FFD2D2" d="M454.757 417.484a255.984 255.984 0 0 1-28.52 29.82l-26.43-42.2c-.07-.12-.14-.23-.21-.35-5.58-9.33-2.69-21.43 6.55-27.22 9.36-5.86 21.7-3.03 27.56 6.34z" opacity="1" data-original="#ffd2d2"></path><path fill="#FFC0C0" d="M441.607 432.434a253.744 253.744 0 0 1-15.37 14.87l-26.43-42.2c-.07-.12-.14-.23-.21-.35l24.9-3.15z" opacity="1" data-original="#ffc0c0"></path><path fill="#0A5966" d="m456.517 397.774-43.65 43.66 1.77 15.61c-1.58 1.27-3.19 2.5-4.8 3.72-51.38 8.757-96.07 39.588-153.79 39.588-6.75 0-13.45-.26-20.07-.78-3.59-.27-7.16-.63-10.71-1.05l4.71-57.087-9.54-9.55-34.11-34.11c-3.6-3.59-3.26-9.51.71-12.67l49.13-39.16a31.481 31.481 0 0 1 19.62-6.86h131.27c7.13 0 14.05 2.42 19.62 6.86l49.13 39.16c3.97 3.159 4.31 9.079.71 12.669z" opacity="1" data-original="#0a5966"></path><path fill="#024144" d="M332.263 348.83v138.774c-3.64.16-7.3.24-10.97.24-3.59 0-7.17-.07-10.72-.23V348.83z" opacity="1" data-original="#024144"></path><path fill="#FFC0C0" d="M321.423 370.268c-17.225 0-31.189-13.964-31.189-31.189V307.89h62.378v31.189c0 17.225-13.964 31.189-31.189 31.189zM416.87 243.653h25.73c19.263 0 34.879-15.616 34.879-34.879 0-19.263-15.616-34.879-34.879-34.879h-24.325z" opacity="1" data-original="#ffc0c0"></path><path fill="#F4AEAE" d="M430.488 227.288h13.658c10.225 0 18.514-8.289 18.514-18.514s-8.289-18.514-18.514-18.514h-12.912z" opacity="1" data-original="#f4aeae"></path><path fill="#FFC0C0" d="M225.973 243.653h-25.731c-19.263 0-34.879-15.616-34.879-34.879 0-19.263 15.616-34.879 34.879-34.879h24.325z" opacity="1" data-original="#ffc0c0"></path><path fill="#F4AEAE" d="M211.754 227.288h-13.658c-10.225 0-18.514-8.289-18.514-18.514s8.289-18.514 18.514-18.514h12.912z" opacity="1" data-original="#f4aeae"></path><path fill="#28858E" d="m450.843 84.18-13.2 106.56h-232.49l-13.2-106.56C186.413 39.47 221.293 0 266.353 0h110.09c45.06 0 79.94 39.47 74.4 84.18z" opacity="1" data-original="#28858e"></path><path fill="#217B7F" d="M254.413 52.81v24.56l15.13 113.37h-64.39l-13.2-106.56C186.413 39.47 221.293 0 266.353 0h40.87c-29.17 0-52.81 23.64-52.81 52.81z" opacity="1" data-original="#217b7f"></path><path fill="#FFD2D2" d="M437.643 190.744V212.2c0 55.746-39.242 102.333-91.615 113.633-7.939 1.713-16.18-2.385-24.632-2.385-64.196 0-111.247-47.051-111.247-111.247l-5-21.455a38.157 38.157 0 0 0 30.257-31.358l11.299-70.068c1.439-8.919 9.141-14.917 17.52-14.917 2.285 0 4.623.444 6.898 1.407a128.94 128.94 0 0 0 50.274 10.199c17.107 0 34.214-3.396 50.284-10.199 10.59-4.475 22.577 2.158 24.407 13.51l11.299 70.068a38.153 38.153 0 0 0 30.256 31.356z" opacity="1" data-original="#ffd2d2"></path><path fill="#FFC0C0" d="M346.028 325.834a116.23 116.23 0 0 1-24.63 2.62c-64.2 0-116.25-52.05-116.25-116.25v-21.46c15.65-3.1 27.72-15.6 30.26-31.35l11.29-70.07c.83-5.16 3.76-9.34 7.71-11.95v134.83c0 55.75 39.25 102.34 91.62 113.63z" opacity="1" data-original="#ffc0c0"></path><path fill="#F1F2F0" d="M304.991 160.1v28.721c0 15.868-12.877 28.745-28.745 28.745-15.881 0-28.745-12.877-28.745-28.745V160.1c0-15.868 12.865-28.745 28.745-28.745 7.94 0 15.117 3.213 20.325 8.42 5.195 5.208 8.42 12.397 8.42 20.325z" opacity="1" data-original="#f1f2f0"></path><path fill="#DDE7E8" d="M283.573 216.618c-2.336.618-4.793.94-7.33.94-15.881 0-28.742-12.874-28.742-28.742V160.1c0-15.868 12.861-28.742 28.742-28.742 2.524 0 4.981.322 7.33.94-12.337 3.249-21.426 14.472-21.426 27.803v28.716c0 13.329 9.089 24.553 21.426 27.801z" opacity="1" data-original="#dde7e8"></path><path fill="#0A5966" d="M282.94 203.3c-8.355 0-15.128-6.773-15.128-15.128v-15.115c0-8.355 6.773-15.128 15.128-15.128s15.128 6.773 15.128 15.128v15.115c0 8.355-6.773 15.128-15.128 15.128z" opacity="1" data-original="#0a5966"></path><path fill="#F1F2F0" d="M391.953 160.1v28.721c0 15.868-12.865 28.745-28.745 28.745-15.869 0-28.733-12.877-28.733-28.745V160.1c0-7.928 3.213-15.117 8.421-20.325a28.586 28.586 0 0 1 20.313-8.42c15.88 0 28.744 12.877 28.744 28.745z" opacity="1" data-original="#f1f2f0"></path><path fill="#DDE7E8" d="M370.547 216.618c-2.336.618-4.793.94-7.33.94-15.881 0-28.742-12.874-28.742-28.742V160.1c0-15.868 12.861-28.742 28.742-28.742 2.524 0 4.981.322 7.33.94-12.337 3.249-21.426 14.472-21.426 27.803v28.716c0 13.329 9.089 24.553 21.426 27.801z" opacity="1" data-original="#dde7e8"></path><path fill="#0A5966" d="M356.517 203.3c8.355 0 15.128-6.773 15.128-15.128v-15.115c0-8.355-6.773-15.128-15.128-15.128s-15.128 6.773-15.128 15.128v15.115c0 8.355 6.773 15.128 15.128 15.128z" opacity="1" data-original="#0a5966"></path><path fill="#FFC0C0" d="M332.662 214.88h-22.477c-5.86 0-10.611 4.751-10.611 10.611s4.751 10.611 10.611 10.611h22.477c5.86 0 10.611-4.751 10.611-10.611 0-5.861-4.751-10.611-10.611-10.611z" opacity="1" data-original="#ffc0c0"></path><path fill="#F1F2F0" d="M290.573 262.852c-3.437-3.437-3.437-9.009 0-12.446s9.009-3.437 12.446 0c10.133 10.133 26.62 10.133 36.752 0 3.437-3.437 9.009-3.437 12.446 0s3.437 9.009 0 12.446c-16.994 16.996-44.648 16.996-61.644 0z" opacity="1" data-original="#f1f2f0"></path><path fill="#5EACDD" d="M371.717 460.823h11.459a8.64 8.64 0 0 0 8.64-8.64V338.094a8.64 8.64 0 0 0-8.64-8.64h-11.459a8.64 8.64 0 0 0-8.64 8.64v114.089a8.64 8.64 0 0 0 8.64 8.64z" opacity="1" data-original="#5eacdd"></path><path fill="#5EACDD" d="M409.837 460.764c-39.27 29.56-87.31 48.07-139.53 50.93-4.72.27-9.47.4-14.26.4-3 0-6-.05-8.98-.15-3.72-.13-7.42-8.9-11.09-9.19-4.45-.34-6.33-3.34-10.71-3.91l14.37-69.89c2.22-10.64 11.6-18.27 22.47-18.27h118.62c10.87 0 20.25 7.63 22.47 18.27z" opacity="1" data-original="#5eacdd"></path><path fill="#4B9FC9" d="M270.307 511.694c-4.72.27-9.47.4-14.26.4-3 0-6-.05-8.98-.15-3.72-.13-7.42-8.9-11.09-9.19-4.45-.34-6.33-3.34-10.71-3.91l14.37-69.89c2.22-10.64 11.6-18.27 22.47-18.27h15.98c-13.33 20.97-27.77 57.48-7.78 101.01z" opacity="1" data-original="#4b9fc9"></path><path fill="#024144" d="m290.234 339.079 31.189 31.189-28.183 21.248c-4.691 3.536-11.469 1.322-13.168-4.302l-14.536-48.135zM352.612 339.079l-31.189 31.189 28.183 21.248c4.691 3.536 11.469 1.322 13.168-4.302l9.5-31.459c2.508-8.305-3.708-16.677-12.384-16.677z" opacity="1" data-original="#024144"></path><g fill="#F1F2F0"><path d="M347.876 482.844c0-14.611-11.844-26.455-26.455-26.455s-26.455 11.844-26.455 26.455 11.844 9.83 26.455 9.83 26.455 4.781 26.455-9.83z" fill="#F1F2F0" opacity="1" data-original="#f1f2f0"></path><circle cx="284.385" cy="459.357" r="10.165" fill="#F1F2F0" opacity="1" data-original="#f1f2f0"></circle><circle cx="308.408" cy="442.304" r="10.165" fill="#F1F2F0" opacity="1" data-original="#f1f2f0"></circle><circle cx="358.457" cy="459.357" r="10.165" fill="#F1F2F0" opacity="1" data-original="#f1f2f0"></circle><circle cx="334.435" cy="442.304" r="10.165" fill="#F1F2F0" opacity="1" data-original="#f1f2f0"></circle></g><path fill="#B26A39" d="M246.597 511.914c-41.69-1.5-80.83-12.99-115.12-32.12-3.01-1.68-5.98-3.42-8.91-5.21-.18-.11-.35-.21-.52-.33-.91-.55-1.81-1.12-2.71-1.69 3.32-16.02 5.94-24.3 5.94-24.3h109.33s6.49 24.45 11.99 63.65z" opacity="1" data-original="#b26a39"></path><path fill="#AF5B3A" d="M151.507 448.264s-2.22 13.52-4.58 39.46a254.13 254.13 0 0 1-27.59-15.16c3.32-16.02 5.94-24.3 5.94-24.3z" opacity="1" data-original="#af5b3a"></path><path fill="#B26A39" d="M212.021 307.189s9.467-66.086 44.387-90.754c5.84-4.125 13.84-3.361 18.883 1.708 18.99 19.09 58.634 74.663-4.965 163.649zM147.866 307.187l-42.859 54.84-15.45 19.769C25.96 292.805 65.603 237.235 84.592 218.14c5.042-5.063 13.041-5.829 18.884-1.706 34.923 24.67 44.39 90.753 44.39 90.753z" opacity="1" data-original="#b26a39"></path><path fill="#AF5B3A" d="m105.007 362.027-15.45 19.769C25.96 292.805 65.603 237.235 84.592 218.14c5.042-5.063 13.041-5.829 18.884-1.706 0 0-52.986 54.341 0 142.974.526.884 1.039 1.755 1.531 2.619z" opacity="1" data-original="#af5b3a"></path><g fill="#FFD2D2"><path d="m146.647 317.862-32.714 41.859-11.793 15.089c-48.543-67.926-18.284-110.343-3.79-124.918 3.849-3.865 9.954-4.449 14.414-1.303 26.657 18.832 33.883 69.273 33.883 69.273zM213.236 317.862l32.714 41.859 11.793 15.089c48.543-67.926 18.284-110.343 3.79-124.918-3.849-3.865-9.954-4.449-14.414-1.303-26.657 18.832-33.883 69.273-33.883 69.273z" fill="#FFD2D2" opacity="1" data-original="#ffd2d2"></path></g><path fill="#B26A39" d="m271.66 432.843-1.966 1.215-72.052 21.124a33.687 33.687 0 0 1-35.401 0l-11.742-3.441-60.31-17.683-1.966-1.215c-13.167-8.125-19.116-24.172-14.424-38.912l37.352-86.374c4.452-13.982 8.225-25.483 22.902-25.483h29.312l16.573 10.71 16.573-10.71h29.319c14.677 0 27.669 9.502 32.121 23.484l28.126 88.373c4.699 14.74-1.249 30.787-14.417 38.912z" opacity="1" data-original="#b26a39"></path><path fill="#0A5966" d="M153.499 355.044a16.934 16.934 0 0 1-3.271 11.024c-1.151 1.564-3.24 2.169-5.063 1.498a24.922 24.922 0 0 0-8.627-1.53 24.94 24.94 0 0 0-8.62 1.529c-1.897.697-4.016-.026-5.194-1.669a16.918 16.918 0 0 1-3.173-9.889c0-9.731 8.182-17.551 18.042-16.956 8.516.516 15.435 7.474 15.906 15.993z" opacity="1" data-original="#0a5966"></path><path fill="#024144" d="M130.653 356.008c0 3.806 1.257 7.325 3.378 10.155a24.733 24.733 0 0 0-5.994 1.36c-1.867.676-3.997.161-5.176-1.437a16.937 16.937 0 0 1-3.288-10.975c.418-8.119 6.703-14.929 14.768-15.951a17.006 17.006 0 0 1 7.751.795c-6.656 2.296-11.439 8.616-11.439 16.053z" opacity="1" data-original="#024144"></path><path fill="#0A5966" d="M240.299 355.044a16.934 16.934 0 0 1-3.271 11.024c-1.151 1.564-3.24 2.169-5.063 1.498a24.922 24.922 0 0 0-8.627-1.53 24.94 24.94 0 0 0-8.62 1.529c-1.897.697-4.016-.026-5.194-1.669a16.918 16.918 0 0 1-3.173-9.889c0-9.731 8.182-17.551 18.042-16.956 8.515.516 15.434 7.474 15.906 15.993z" opacity="1" data-original="#0a5966"></path><path fill="#024144" d="M217.453 356.008c0 3.806 1.257 7.325 3.378 10.155a24.733 24.733 0 0 0-5.994 1.36c-1.867.676-3.997.161-5.176-1.437a16.937 16.937 0 0 1-3.288-10.975c.418-8.119 6.703-14.929 14.768-15.951a17.006 17.006 0 0 1 7.751.795c-6.657 2.296-11.439 8.616-11.439 16.053z" opacity="1" data-original="#024144"></path><path fill="#AF5B3A" d="m150.499 451.741-60.31-17.683-1.966-1.215c-13.167-8.125-19.116-24.172-14.424-38.912l28.133-88.373c4.452-13.982 17.444-23.484 32.121-23.484h19.474c-28.408 2.268-75.993 87.727-3.028 169.667z" opacity="1" data-original="#af5b3a"></path><path fill="#F1F2F0" d="m269.694 434.058-1.004.618c-34.13 21.033-73.871 28.87-112.179 23.519a168.974 168.974 0 0 1-65.044-23.357l-1.278-.779c8.533-.225 16.138-3.111 22.529-6.945 5.056-3.027 9.417-6.931 12.985-11.447 4.93-6.229 8.357-13.631 10.042-21.573 3.448-16.285 13.357-25.043 20.323-29.326 4.544-2.788 7.297-7.753 7.297-13.083v-69.608h33.147v69.608c0 5.372 2.83 10.323 7.395 13.146 6.952 4.305 16.791 13.055 20.225 29.263 2.907 13.694 11.011 25.815 23.027 33.013 6.397 3.84 14.003 6.733 22.535 6.951z" opacity="1" data-original="#f1f2f0"></path><path fill="#F45B83" d="M198.833 409.899v.148c0 10.434-8.46 18.886-18.894 18.886-10.427 0-18.886-8.452-18.886-18.886v-.148c1.532.381 3.141.583 4.79.583a19.854 19.854 0 0 0 14.097-5.855c3.616 3.615 8.599 5.855 14.097 5.855 1.647 0 3.257-.202 4.796-.583z" opacity="1" data-original="#f45b83"></path><path fill="#DDE7E8" d="M156.51 458.195a168.974 168.974 0 0 1-65.044-23.357l-1.278-.779c8.533-.225 16.138-3.111 22.529-6.945 5.056-3.027 9.417-6.931 12.985-11.447 7.023 14.051 17.051 28.377 30.808 42.528z" opacity="1" data-original="#dde7e8"></path><path fill="#0A5966" d="m194.191 390.137 6.916-8.836c4.482-5.727.402-14.101-6.87-14.101h-28.599c-7.272 0-11.352 8.374-6.87 14.101l6.916 8.836c7.247 9.26 21.261 9.26 28.507 0z" opacity="1" data-original="#0a5966"></path><path fill="#044E56" d="M186.45 395.868c-7.107 2.739-15.632.822-20.766-5.73l-6.91-8.841c-4.487-5.723-.407-14.101 6.868-14.101h13.02c-7.275 0-11.356 8.378-6.868 14.101l6.91 8.841a17.872 17.872 0 0 0 7.746 5.73z" opacity="1" data-original="#044e56"></path><path fill="#FFD2D2" d="M154.597 462.454a10.744 10.744 0 0 1-2.14 6.44 10.71 10.71 0 0 1-10.36 4.15l-13.12-2.2 6.59 3.94c5.28 3.17 6.86 10.16 3.3 15.31-3.24 4.7-9.74 5.84-14.64 2.91l-15.57-9.33c-.8-.47-1.61-.9-2.45-1.29-4.86-2.24-9.06-5.55-12.45-9.57-3.38-4.02-5.95-8.76-7.53-13.87-3.32-10.74-1.61-22.45 4.81-31.68 1.03-1.48 1.92-3.05 2.68-4.72l5.17-11.48c2.01-4.46 6.39-7.09 10.98-7.09 1.66 0 3.34.34 4.94 1.06 2.65 1.2 4.66 3.23 5.85 5.66 1.53 3.11 1.71 6.85.18 10.26l-5.73 12.72 19.92-7.85c5.73-2.26 12.23.76 14.15 6.72 1.74 5.44-1.32 11.28-6.63 13.37l-9.71 3.83 12.81 2.14c3.26.55 5.94 2.53 7.49 5.18.94 1.6 1.46 3.45 1.46 5.39z" opacity="1" data-original="#ffd2d2"></path><path fill="#FFC0C0" d="M138.867 490.094c-3.24 4.7-9.74 5.84-14.64 2.91l-15.57-9.33c-.8-.47-1.61-.9-2.45-1.29-4.86-2.24-9.06-5.55-12.45-9.57-3.38-4.02-5.95-8.76-7.53-13.87-3.32-10.74-1.61-22.45 4.81-31.68 1.03-1.48 1.92-3.05 2.68-4.72 0 0-4.33 36.71 35.26 48.3l6.59 3.94c5.28 3.17 6.86 10.16 3.3 15.31z" opacity="1" data-original="#ffc0c0"></path></g></svg>